<?xml version="1.0" encoding="utf-8"?>
<!-- Generator: Adobe Illustrator 15.0.0, SVG Export Plug-In . SVG Version: 6.00 Build 0)  -->
<!DOCTYPE svg PUBLIC "-//W3C//DTD SVG 1.1//EN" "http://www.w3.org/Graphics/SVG/1.1/DTD/svg11.dtd">
<svg version="1.1" id="Layer_1" xmlns="http://www.w3.org/2000/svg" xmlns:xlink="http://www.w3.org/1999/xlink" x="0px" y="0px"
	 width="1000px" height="450px" viewBox="0 0 1000 450" enable-background="new 0 0 1000 450" xml:space="preserve">
<rect fill="none" width="1000" height="450"/>
<g>
	<g>
		<path fill="#7695CD" d="M492.163,147.249h-43.969c-7.329,0-13.559-3.249-18.687-9.742c-5.131-6.494-7.696-14.628-7.696-24.405
			V73.51c0-9.773,2.565-17.909,7.696-24.404c5.127-6.495,11.357-9.741,18.687-9.741h57.004c0,16.759-6.857,25.137-20.572,25.137
			h-36.432c-5.025,0-7.538,3.006-7.538,9.008v39.592c0,6.007,2.513,9.01,7.538,9.01h43.656v-16.341h-11.308
			c-11.204,0-16.803-8.379-16.803-25.138h27.954c12.665,0,19.001,7.752,19.001,23.251v18.227
			C510.693,138.87,504.514,147.249,492.163,147.249"/>
		<path fill="#7695CD" d="M518.544,39.364c12.666,0,19.001,6.984,19.001,20.95v52.787c0,6.008,2.459,9.01,7.382,9.01h20.101
			c13.293,0,19.942,8.378,19.942,25.138h-40.043c-7.33,0-13.56-3.249-18.688-9.742c-5.13-6.494-7.694-14.628-7.694-24.406V39.364z"
			/>
		<path fill="#7695CD" d="M685.654,112.958c0,9.762-2.565,17.878-7.695,24.361c-5.13,6.48-11.36,9.721-18.687,9.721h-47.425
			c-7.328,0-13.56-3.241-18.687-9.721c-5.131-6.483-7.694-14.599-7.694-24.361V73.445c0-9.757,2.563-17.877,7.694-24.36
			c5.127-6.481,11.358-9.721,18.687-9.721h47.425c7.326,0,13.557,3.24,18.687,9.721c5.13,6.482,7.695,14.603,7.695,24.36V112.958z
			 M666.811,112.926V73.477c0-5.983-2.514-8.975-7.538-8.975h-47.425c-5.024,0-7.539,2.992-7.539,8.975v39.449
			c0,5.983,2.515,8.975,7.539,8.975h47.425C664.297,121.901,666.811,118.909,666.811,112.926"/>
		<path fill="#7695CD" d="M718.629,39.155l51.667,0.209c7.117,0,12.77,3.075,16.958,9.218c3.77,5.586,5.654,12.431,5.654,20.53
			c0,10.055-2.775,17.877-8.324,23.46c6.598,5.448,9.894,13.757,9.894,24.929c0,8.102-1.937,14.945-5.809,20.529
			c-4.189,6.147-9.843,9.218-16.962,9.218h-47.738v0.208h-12.248c-12.146,0-18.271-7.819-18.373-23.462V80.633l76.948,0.208
			c2.719,0,4.082-2.721,4.082-8.168c0-5.447-1.363-8.171-4.082-8.171l-51.667,0.21c-16.75-0.278-25.179-8.798-25.281-25.556H718.629
			z M771.707,122.112c2.723,0,4.082-2.726,4.082-8.172c0-5.446-1.359-8.169-4.082-8.169h-59.516v16.341H771.707z"/>
		<path fill="#7695CD" d="M800.289,124.205v-15.082c-0.103-15.781,6.02-23.881,18.373-24.3h61.872v-12.15
			c0-5.447-1.36-8.171-4.083-8.171l-62.972,0.42c0.837-5.865,2.773-11.103,5.811-15.711c4.186-6.563,9.63-9.846,16.331-9.846h40.83
			c6.804,0,12.329,3.283,16.567,9.846c4.24,6.566,6.359,14.385,6.359,23.462v52.16c0,14.946-6.021,22.416-18.059,22.416
			l-62.186,0.208C806.571,147.317,800.289,139.57,800.289,124.205 M880.534,109.96h-61.401v13.406h61.401V109.96z"/>
		<path fill="#7695CD" d="M907.23,39.364c12.667,0,19.001,6.984,19.001,20.95v52.787c0,6.008,2.46,9.01,7.38,9.01h20.101
			c13.296,0,19.944,8.378,19.944,25.138h-40.045c-7.327,0-13.559-3.249-18.686-9.742c-5.13-6.494-7.695-14.628-7.695-24.406V39.364z
			"/>
	</g>
	<g>
		<path fill="#35322F" d="M496.21,193.813h-18.441v61.923c0,14.563-6.36,21.844-19.078,21.844v-83.767h-36.88
			c0-16.964,5.509-25.447,16.534-25.447h76.307C514.651,185.331,508.502,193.813,496.21,193.813"/>
		<path fill="#35322F" d="M591.434,193.601l-0.159,0.212h-1.112c-1.274,0.286-5.622,0.286-13.039,0h-36.561v16.33h61.522
			c-0.852,5.938-2.809,11.241-5.884,15.906c-4.238,6.646-9.753,9.753-16.535,9.33l-34.334,0.213h-4.77v16.541l36.246-0.213
			l31.476-0.211c-0.851,5.938-2.811,11.239-5.883,15.903c-4.238,6.647-9.753,9.968-16.532,9.968h-45.307
			c-12.721,0-19.078-8.48-19.078-25.447v-58.107c0-17.105,6.2-25.66,18.6-25.66h68.521c-0.853,5.938-2.814,11.239-5.886,15.905
			C599.644,189.078,595.885,192.191,591.434,193.601"/>
		<path fill="#35322F" d="M675.529,251.92v-0.211l31.477-0.214c-0.851,5.938-2.808,11.24-5.882,15.905
			c-4.238,6.647-9.753,9.968-16.533,9.968h-9.062v-0.212l-31.955,0.212c-7.418,0-13.725-3.287-18.915-9.861
			c-5.193-6.574-7.79-14.809-7.79-24.706v-40.08c0-9.894,2.597-18.132,7.79-24.707c5.19-6.573,11.497-9.859,18.915-9.859h63.271
			l-0.159,0.211c-0.847,5.799-2.809,11.029-5.88,15.694c-4.242,6.646-9.752,9.966-16.534,9.966h-9.062v-0.425h-31.637
			c-5.087,0-7.63,3.042-7.63,9.12v40.08c0,6.08,2.543,9.119,7.63,9.119H675.529z"/>
		<path fill="#35322F" d="M801.912,277.58c-12.823,0-19.235-6.996-19.235-20.993v-20.995h-48.965v41.988
			c-12.716,0-19.077-7.067-19.077-21.206v-88.008c12.721,0,19.077,6.928,19.077,20.781v20.996h48.965v-41.777
			c12.822,0,19.235,6.928,19.235,20.781V277.58z"/>
	</g>
	<g>
		<path fill="#7695CD" d="M447.402,299.628l52.306,0.212c7.203,0,12.925,3.112,17.165,9.331c3.816,5.656,5.726,12.584,5.726,20.783
			c0,10.18-2.808,18.099-8.429,23.75c6.678,5.515,10.016,13.926,10.016,25.236c0,8.202-1.962,15.131-5.879,20.782
			c-4.242,6.223-9.965,9.332-17.172,9.332h-48.327v0.211H440.41c-12.296,0-18.496-7.915-18.6-23.751v-43.896l77.897,0.21
			c2.751,0,4.129-2.755,4.129-8.269s-1.378-8.272-4.129-8.272l-52.306,0.213c-16.956-0.282-25.488-8.906-25.591-25.872H447.402z
			 M501.135,383.606c2.759,0,4.136-2.759,4.136-8.271c0-5.512-1.377-8.27-4.136-8.27h-60.248v16.541H501.135z"/>
		<path fill="#7695CD" d="M631.654,374.341c0,9.882-2.601,18.099-7.791,24.661c-5.193,6.56-11.5,9.841-18.918,9.841h-48.01
			c-7.421,0-13.729-3.281-18.918-9.841c-5.192-6.563-7.787-14.779-7.787-24.661v-39.999c0-9.879,2.595-18.099,7.787-24.662
			c5.189-6.561,11.497-9.84,18.918-9.84h48.01c7.418,0,13.725,3.279,18.918,9.84c5.19,6.563,7.791,14.783,7.791,24.662V374.341z
			 M612.578,374.309v-39.936c0-6.058-2.547-9.087-7.633-9.087h-48.01c-5.086,0-7.628,3.029-7.628,9.087v39.936
			c0,6.057,2.542,9.085,7.628,9.085h48.01C610.031,383.394,612.578,380.365,612.578,374.309"/>
		<polygon fill="#7695CD" points="636.899,409.055 661.695,409.055 681.251,376.607 668.375,357.734 		"/>
		<polygon fill="#7695CD" points="729.419,299.84 704.619,299.84 683.635,333.77 662.652,299.84 637.852,299.84 705.571,409.055 
			730.373,409.055 696.035,353.704 		"/>
	</g>
	<g>
		<path fill-rule="evenodd" clip-rule="evenodd" fill="#7695CD" d="M399.199,206.845c-3.055-26.819-13.892-46.261-43.034-53.153
			c-17.756-4.206-36.955-5.451-53.857-17.586c-14.041-24.131-11.133-55.824-30.264-80.737
			c-17.559-11.405-37.349-15.654-58.192-15.652v-0.002c-0.102,0-0.204,0.002-0.308,0.002c-0.102,0-0.203-0.002-0.308-0.002v0.002
			c-20.843-0.002-40.631,4.248-58.189,15.652c-19.134,24.914-16.227,56.606-30.267,80.737c-16.902,12.135-36.1,13.38-53.857,17.586
			c-29.142,6.892-39.978,26.334-43.035,53.153c-2.856,25.083-0.005,45.146,10.468,73.256c21.765,25.555,57.619,18.731,84.708,35.107
			c11.687,13.488,12.972,31.796,16.232,48.534c6.212,31.847,26.41,45.438,55.961,48.119c6,0.542,11.99,0.842,17.979,0.838v0.006
			c0.104,0,0.206-0.003,0.308-0.002c0.104-0.001,0.206,0.002,0.308,0.002v-0.006c5.989,0.004,11.981-0.296,17.981-0.838
			c29.549-2.682,49.746-16.272,55.962-48.119c3.258-16.738,4.545-35.046,16.23-48.534c27.087-16.376,62.944-9.553,84.708-35.107
			C399.205,251.99,402.058,231.928,399.199,206.845 M298.195,310.821c-28.46,5.704-56.589,8.779-84.651,8.811
			c-28.061-0.031-56.192-3.106-84.651-8.811c-11.193-56.893-11.463-112.702,0.206-168.958c28.604-5.694,56.693-8.698,84.445-8.73
			c27.754,0.032,55.842,3.036,84.445,8.73C309.658,198.12,309.39,253.929,298.195,310.821"/>
		<path fill-rule="evenodd" clip-rule="evenodd" fill="#7695CD" d="M126.045,311.613l0.209,2.169l0.817-2.125
			C126.726,311.642,126.38,311.626,126.045,311.613"/>
		<path fill-rule="evenodd" clip-rule="evenodd" fill="#35322F" d="M293.694,64.574c-5.057,7.747,5.87,56.441,17.691,66.488
			c7.308,6.211,40.139,21.598,66.177,20.505C418.489,149.851,314.8,32.259,293.694,64.574"/>
		<path fill-rule="evenodd" clip-rule="evenodd" fill="#35322F" d="M132.623,61.992c6.856,6.213-4.521,59.023-16.339,69.069
			c-7.309,6.212-40.137,21.599-66.176,20.506C9.181,149.851,102.005,34.242,132.623,61.992"/>
		<path fill-rule="evenodd" clip-rule="evenodd" fill="#35322F" d="M130.042,389.608c6.536-6.215-2.04-54.574-13.307-64.622
			c-6.965-6.215-38.255-21.598-63.072-20.508C14.652,306.197,100.861,417.358,130.042,389.608"/>
		<path fill-rule="evenodd" clip-rule="evenodd" fill="#35322F" d="M295.761,389.608c-6.53-6.215,2.044-54.574,13.31-64.622
			c6.965-6.215,38.255-21.598,63.075-20.508C411.156,306.197,324.947,417.358,295.761,389.608"/>
		<path fill-rule="evenodd" clip-rule="evenodd" fill="#35322F" d="M239.556,226.12c5.981,1.165,12.026,2.09,18.106,2.172
			c6.502,0.09,12.767-1.267,18.879-5.755c0.884,5.405,0.274,10.25-0.524,14.938c-5.249,30.788-32.691,54.987-67.685,52.292
			c-25.965-1.998-47.542-20.401-55.495-45.808c-3.278-10.469-3.393-21.111-1.438-31.113c2.955-15.116,11.445-27.844,23.831-37.555
			c11.013-8.634,23.449-12.684,37.494-12.837c12.291-0.133,23.9,1.661,34.509,8.145c1.799,1.099,3.729,2.055,5.269,3.984
			c-6.207,5.835-12.379,11.64-18.707,17.591c-19.803-11.504-45.037-4.771-54.594,17.898c-8.997,21.339,0.916,45.06,21.478,52.686
			c22.583,8.378,42.813-5.718,46.936-20.106h-44.968c0,0,7.801-6.753,13.624-12.825C219.739,226.211,231.327,224.517,239.556,226.12
			"/>
		<path fill-rule="evenodd" clip-rule="evenodd" fill="#7695CD" d="M270.835,209.662c0,0-7.245,10.867-21.077,10.867
			c-13.83,0-26.18-1.976-32.601,5.929c-6.422,7.902-12.348,11.688-13.995,12.349c0,0,9.551-12.186,14.16-19.759
			c4.61-7.574,13.831-8.891,20.747-8.232C244.984,211.473,258.651,213.777,270.835,209.662"/>
	</g>
</g>
</svg>
